# xmcd CD database file
#
# Track frame offsets:
#	150
#	13612
#	27937
#	42937
#	62887
#	78487
#	94913
#	106988
#	121388
#
# Disc length: 1664 seconds
#
# Revision: 0
# Processed by: cddbd v1.5.1PL0 Copyright (c) Steve Scherf et al.
# Submitted via: CDex 1.51
#
DISCID=6f067e09
DTITLE=Hermann H. and The Pacemakers - HEAVY FITNESS
DYEAR=1999
DGENRE=ロック (一般)
TTITLE0=エアコン・キングダム
TTITLE1=BEAT MANIA
TTITLE2=Runaway Song
TTITLE3=靴底
TTITLE4=Silver Seater
TTITLE5=One,Two,Three,Four
TTITLE6=Comeon, Ha!!
TTITLE7=eboli(a magic spell)
TTITLE8=a
EXTD=YEAR: 1999
EXTT0=
EXTT1=
EXTT2=
EXTT3=
EXTT4=
EXTT5=
EXTT6=
EXTT7=
EXTT8=
PLAYORDER=
